<mxfile host="app.diagrams.net" modified="2022-08-25T03:43:13.954Z" agent="5.0 (Macintosh; Intel Mac OS X 10_15_7) AppleWebKit/605.1.15 (KHTML, like Gecko) Version/15.6 Safari/605.1.15" etag="AS6P9SSMNVKeonDyCka5" version="20.2.6" type="github">
  <diagram id="U5qsDX5XsF3UERbF2JVi" name="Page-1">
    <mxGraphModel dx="896" dy="496" grid="1" gridSize="10" guides="1" tooltips="1" connect="1" arrows="1" fold="1" page="1" pageScale="1" pageWidth="827" pageHeight="1169" math="0" shadow="0">
      <root>
        <mxCell id="0" />
        <mxCell id="1" parent="0" />
        <mxCell id="50R7UgXfB15LJJjq8Gai-1" value="Inicio" style="strokeWidth=2;html=1;shape=mxgraph.flowchart.terminator;whiteSpace=wrap;" vertex="1" parent="1">
          <mxGeometry x="246" y="50" width="100" height="40" as="geometry" />
        </mxCell>
        <mxCell id="50R7UgXfB15LJJjq8Gai-2" style="edgeStyle=orthogonalEdgeStyle;rounded=0;orthogonalLoop=1;jettySize=auto;html=1;exitX=0.5;exitY=1;exitDx=0;exitDy=0;entryX=0.5;entryY=0;entryDx=0;entryDy=0;entryPerimeter=0;" edge="1" parent="1" source="50R7UgXfB15LJJjq8Gai-3" target="50R7UgXfB15LJJjq8Gai-10">
          <mxGeometry relative="1" as="geometry" />
        </mxCell>
        <mxCell id="50R7UgXfB15LJJjq8Gai-3" value="dinero_disponible" style="shape=parallelogram;html=1;strokeWidth=2;perimeter=parallelogramPerimeter;whiteSpace=wrap;rounded=1;arcSize=12;size=0.23;" vertex="1" parent="1">
          <mxGeometry x="201" y="165" width="190" height="40" as="geometry" />
        </mxCell>
        <mxCell id="50R7UgXfB15LJJjq8Gai-4" value="Fin" style="strokeWidth=2;html=1;shape=mxgraph.flowchart.terminator;whiteSpace=wrap;" vertex="1" parent="1">
          <mxGeometry x="245" y="420" width="100" height="40" as="geometry" />
        </mxCell>
        <mxCell id="50R7UgXfB15LJJjq8Gai-5" value="" style="endArrow=classic;html=1;rounded=0;exitX=0.5;exitY=1;exitDx=0;exitDy=0;exitPerimeter=0;entryX=0.5;entryY=0;entryDx=0;entryDy=0;" edge="1" parent="1" source="50R7UgXfB15LJJjq8Gai-1" target="50R7UgXfB15LJJjq8Gai-19">
          <mxGeometry width="50" height="50" relative="1" as="geometry">
            <mxPoint x="126" y="250" as="sourcePoint" />
            <mxPoint x="176" y="200" as="targetPoint" />
          </mxGeometry>
        </mxCell>
        <mxCell id="50R7UgXfB15LJJjq8Gai-6" style="edgeStyle=orthogonalEdgeStyle;rounded=0;orthogonalLoop=1;jettySize=auto;html=1;exitX=0.5;exitY=1;exitDx=0;exitDy=0;exitPerimeter=0;entryX=0.5;entryY=0;entryDx=0;entryDy=0;entryPerimeter=0;" edge="1" parent="1" source="50R7UgXfB15LJJjq8Gai-10" target="50R7UgXfB15LJJjq8Gai-22">
          <mxGeometry relative="1" as="geometry">
            <mxPoint x="176" y="360" as="targetPoint" />
          </mxGeometry>
        </mxCell>
        <mxCell id="50R7UgXfB15LJJjq8Gai-7" value="SI" style="edgeLabel;html=1;align=center;verticalAlign=middle;resizable=0;points=[];" vertex="1" connectable="0" parent="50R7UgXfB15LJJjq8Gai-6">
          <mxGeometry x="-0.3495" y="1" relative="1" as="geometry">
            <mxPoint as="offset" />
          </mxGeometry>
        </mxCell>
        <mxCell id="50R7UgXfB15LJJjq8Gai-8" style="edgeStyle=orthogonalEdgeStyle;rounded=0;orthogonalLoop=1;jettySize=auto;html=1;exitX=1;exitY=0.5;exitDx=0;exitDy=0;exitPerimeter=0;entryX=1;entryY=0.5;entryDx=0;entryDy=0;entryPerimeter=0;" edge="1" parent="1" source="50R7UgXfB15LJJjq8Gai-10" target="50R7UgXfB15LJJjq8Gai-4">
          <mxGeometry relative="1" as="geometry">
            <mxPoint x="402" y="385" as="targetPoint" />
            <Array as="points">
              <mxPoint x="410" y="255" />
              <mxPoint x="410" y="440" />
            </Array>
          </mxGeometry>
        </mxCell>
        <mxCell id="50R7UgXfB15LJJjq8Gai-9" value="NO" style="edgeLabel;html=1;align=center;verticalAlign=middle;resizable=0;points=[];" vertex="1" connectable="0" parent="50R7UgXfB15LJJjq8Gai-8">
          <mxGeometry x="-0.3232" relative="1" as="geometry">
            <mxPoint as="offset" />
          </mxGeometry>
        </mxCell>
        <mxCell id="50R7UgXfB15LJJjq8Gai-10" value="dinero_disponible &amp;gt;= (sandwich+refresco)" style="strokeWidth=2;html=1;shape=mxgraph.flowchart.decision;whiteSpace=wrap;" vertex="1" parent="1">
          <mxGeometry x="200" y="220" width="190" height="70" as="geometry" />
        </mxCell>
        <mxCell id="50R7UgXfB15LJJjq8Gai-13" value="&lt;div style=&quot;font-style: normal; font-variant-caps: normal; font-weight: normal; letter-spacing: normal; text-align: start; text-indent: 0px; text-transform: none; word-spacing: 0px; -webkit-text-stroke-width: 0px; text-decoration: none; color: rgb(171, 178, 191); background-color: rgb(40, 44, 52); font-family: &amp;quot;Fira Code&amp;quot;, &amp;quot;Menlo for Powerline&amp;quot;, Menlo, Monaco, &amp;quot;Courier New&amp;quot;, monospace; font-size: 12px; line-height: 18px;&quot;&gt;&lt;div&gt;&lt;span style=&quot;color: rgb(127, 132, 142); font-style: italic;&quot;&gt;Mostrar resultados al usuario&lt;/span&gt;&lt;/div&gt;&lt;/div&gt;" style="text;whiteSpace=wrap;html=1;" vertex="1" parent="1">
          <mxGeometry x="440" y="345" width="240" height="30" as="geometry" />
        </mxCell>
        <mxCell id="50R7UgXfB15LJJjq8Gai-14" value="&lt;div style=&quot;font-style: normal; font-variant-caps: normal; font-weight: normal; letter-spacing: normal; text-align: start; text-indent: 0px; text-transform: none; word-spacing: 0px; -webkit-text-stroke-width: 0px; text-decoration: none; color: rgb(171, 178, 191); background-color: rgb(40, 44, 52); font-family: &amp;quot;Fira Code&amp;quot;, &amp;quot;Menlo for Powerline&amp;quot;, Menlo, Monaco, &amp;quot;Courier New&amp;quot;, monospace; font-size: 12px; line-height: 18px;&quot;&gt;&lt;div&gt;&lt;span style=&quot;color: rgb(127, 132, 142); font-style: italic;&quot;&gt;Desarrollo de operaciones&lt;/span&gt;&lt;/div&gt;&lt;/div&gt;" style="text;whiteSpace=wrap;html=1;" vertex="1" parent="1">
          <mxGeometry x="440" y="240" width="210" height="30" as="geometry" />
        </mxCell>
        <mxCell id="50R7UgXfB15LJJjq8Gai-17" value="&lt;meta charset=&quot;utf-8&quot;&gt;&lt;div style=&quot;font-style: normal; font-variant-caps: normal; font-weight: normal; letter-spacing: normal; text-align: start; text-indent: 0px; text-transform: none; word-spacing: 0px; -webkit-text-stroke-width: 0px; text-decoration: none; color: rgb(171, 178, 191); background-color: rgb(40, 44, 52); font-family: &amp;quot;Fira Code&amp;quot;, &amp;quot;Menlo for Powerline&amp;quot;, Menlo, Monaco, &amp;quot;Courier New&amp;quot;, monospace; font-size: 12px; line-height: 18px;&quot;&gt;&lt;div&gt;&lt;span style=&quot;color: rgb(127, 132, 142); font-style: italic;&quot;&gt;DeclaraciÃ³n de variables e ingrese de datos&lt;/span&gt;&lt;/div&gt;&lt;/div&gt;" style="text;whiteSpace=wrap;html=1;" vertex="1" parent="1">
          <mxGeometry x="410" y="135" width="340" height="30" as="geometry" />
        </mxCell>
        <mxCell id="50R7UgXfB15LJJjq8Gai-18" style="edgeStyle=orthogonalEdgeStyle;rounded=0;orthogonalLoop=1;jettySize=auto;html=1;exitX=0.5;exitY=1;exitDx=0;exitDy=0;entryX=0.5;entryY=0;entryDx=0;entryDy=0;" edge="1" parent="1" source="50R7UgXfB15LJJjq8Gai-19" target="50R7UgXfB15LJJjq8Gai-3">
          <mxGeometry relative="1" as="geometry" />
        </mxCell>
        <mxCell id="50R7UgXfB15LJJjq8Gai-19" value="sandwich = 135&lt;br&gt;refresco = 45" style="rounded=1;whiteSpace=wrap;html=1;absoluteArcSize=1;arcSize=14;strokeWidth=2;" vertex="1" parent="1">
          <mxGeometry x="215" y="110" width="162" height="35" as="geometry" />
        </mxCell>
        <mxCell id="50R7UgXfB15LJJjq8Gai-24" value="" style="edgeStyle=orthogonalEdgeStyle;rounded=0;orthogonalLoop=1;jettySize=auto;html=1;" edge="1" parent="1" source="50R7UgXfB15LJJjq8Gai-22" target="50R7UgXfB15LJJjq8Gai-4">
          <mxGeometry relative="1" as="geometry" />
        </mxCell>
        <mxCell id="50R7UgXfB15LJJjq8Gai-22" value="&quot;Si alcanza&quot;" style="strokeWidth=2;html=1;shape=mxgraph.flowchart.document2;whiteSpace=wrap;size=0.25;" vertex="1" parent="1">
          <mxGeometry x="245" y="330" width="100" height="60" as="geometry" />
        </mxCell>
      </root>
    </mxGraphModel>
  </diagram>
</mxfile>
